<?xml version="1.0" encoding="utf-8"?>
<!-- Generator: Adobe Illustrator 26.0.2, SVG Export Plug-In . SVG Version: 6.00 Build 0)  -->
<svg version="1.1" id="Layer_1" xmlns="http://www.w3.org/2000/svg" xmlns:xlink="http://www.w3.org/1999/xlink" x="0px" y="0px"
	 viewBox="0 0 360 360" style="enable-background:new 0 0 360 360;" xml:space="preserve">
<style type="text/css">
	.st0{fill:#F07A29;}
	.st1{fill:#2E337F;}
	.st2{fill:#D3D2D2;}
</style>
<g id="Group_26">
	<path id="Path_352" class="st0" d="M198.4,39.5l43.8,99.8c0.4,1,1.5,1.4,2.5,1c0.1,0,0.1-0.1,0.2-0.1l44.5-26.3
		c0.9-0.5,1.2-1.7,0.7-2.6c-0.1-0.2-0.3-0.4-0.4-0.5L201,37.7c-0.7-0.5-1.7-0.5-2.2,0.2C198.2,38.4,198.2,39,198.4,39.5"/>
	<path id="Path_353" class="st1" d="M149.4,91.2c19.7-1,23.1-3.6,15.1-10.2c-7.2-5.9-18.3-17.6-17.2-35.5l-74.5,74.9
		c-0.9,0.9-0.8,2.3,0,3.1c0.3,0.3,0.8,0.5,1.2,0.6l26.3,3.8C95.2,111.5,110.3,93.1,149.4,91.2"/>
	<path id="Path_354" class="st1" d="M231.2,143.7L176.9,19.9c-0.5-1.1-1.8-1.6-2.9-1.1c-0.2,0.1-0.5,0.3-0.7,0.5l-18.9,19
		c-3.1,19.7,9.2,29.8,20.2,36.2c27.4,15.8,28.1,22-9.7,25.6c-32.1,3.1-34.9,22.3-20.2,34.4l84.1,12.3c1.2,0.2,2.3-0.7,2.5-1.9
		C231.4,144.4,231.4,144,231.2,143.7"/>
</g>
<g>
	<g>
		<path d="M57.8,186.6H51v-4h18.6v4h-6.8v17.3h-4.9L57.8,186.6L57.8,186.6z"/>
		<path d="M72.3,184.5c-0.5-0.5-0.8-1.1-0.8-1.9s0.3-1.4,0.8-1.9s1.3-0.8,2.1-0.8c0.9,0,1.6,0.2,2.1,0.7s0.8,1.1,0.8,1.8
			c0,0.8-0.3,1.4-0.8,2c-0.5,0.5-1.3,0.8-2.1,0.8C73.5,185.3,72.8,185,72.3,184.5z M72,187.6h4.7V204H72V187.6z"/>
		<path d="M107.5,189.1c1.2,1.2,1.8,3,1.8,5.4v9.4h-4.7v-8.6c0-1.3-0.3-2.3-0.8-2.9c-0.5-0.6-1.3-1-2.3-1c-1.1,0-2,0.4-2.6,1.1
			c-0.6,0.7-1,1.8-1,3.2v8.2h-4.7v-8.6c0-2.6-1-3.9-3.1-3.9c-1.1,0-2,0.4-2.6,1.1s-1,1.8-1,3.2v8.2h-4.7v-16.4h4.5v1.9
			c0.6-0.7,1.4-1.2,2.2-1.6s1.9-0.5,2.9-0.5c1.2,0,2.2,0.2,3.1,0.7s1.7,1.1,2.3,2c0.7-0.9,1.5-1.5,2.5-2s2.1-0.7,3.4-0.7
			C104.7,187.3,106.3,187.9,107.5,189.1z"/>
		<path d="M139.9,189.1c1.2,1.2,1.8,3,1.8,5.4v9.4H137v-8.6c0-1.3-0.3-2.3-0.8-2.9c-0.5-0.6-1.3-1-2.3-1c-1.1,0-2,0.4-2.6,1.1
			c-0.6,0.7-1,1.8-1,3.2v8.2h-4.7v-8.6c0-2.6-1-3.9-3.1-3.9c-1.1,0-2,0.4-2.6,1.1s-1,1.8-1,3.2v8.2h-4.7v-16.4h4.5v1.9
			c0.6-0.7,1.4-1.2,2.2-1.6s1.9-0.5,2.9-0.5c1.2,0,2.2,0.2,3.1,0.7s1.7,1.1,2.3,2c0.7-0.9,1.5-1.5,2.5-2s2.1-0.7,3.4-0.7
			C137.1,187.3,138.7,187.9,139.9,189.1z"/>
		<path d="M146.7,184.5c-0.5-0.5-0.8-1.1-0.8-1.9s0.3-1.4,0.8-1.9s1.3-0.8,2.1-0.8c0.9,0,1.6,0.2,2.1,0.7s0.8,1.1,0.8,1.8
			c0,0.8-0.3,1.4-0.8,2c-0.5,0.5-1.3,0.8-2.1,0.8C148,185.3,147.3,185,146.7,184.5z M146.5,187.6h4.7V204h-4.7V187.6z"/>
		<path d="M171,189.1c1.2,1.2,1.9,3,1.9,5.4v9.4h-4.7v-8.6c0-1.3-0.3-2.3-0.9-2.9c-0.6-0.6-1.4-1-2.5-1c-1.2,0-2.1,0.4-2.9,1.1
			s-1.1,1.8-1.1,3.3v8.1h-4.7v-16.4h4.5v1.9c0.6-0.7,1.4-1.2,2.3-1.6c0.9-0.4,2-0.6,3.1-0.6C168.1,187.3,169.7,187.9,171,189.1z"/>
		<path d="M179.1,203.7c-1.3-0.3-2.3-0.8-3.1-1.3l1.6-3.4c0.7,0.5,1.6,0.8,2.6,1.1s2,0.4,3,0.4c2,0,3-0.5,3-1.5c0-0.5-0.3-0.8-0.8-1
			s-1.4-0.4-2.5-0.5c-1.3-0.2-2.4-0.4-3.3-0.7c-0.9-0.3-1.6-0.7-2.3-1.4c-0.6-0.7-1-1.6-1-2.9c0-1,0.3-2,0.9-2.8
			c0.6-0.8,1.5-1.4,2.6-1.9s2.5-0.7,4.1-0.7c1.2,0,2.3,0.1,3.5,0.4c1.1,0.3,2.1,0.6,2.8,1l-1.6,3.4c-1.4-0.8-3-1.2-4.7-1.2
			c-1,0-1.8,0.1-2.3,0.4c-0.5,0.3-0.8,0.6-0.8,1.1s0.3,0.9,0.8,1.1c0.5,0.2,1.4,0.4,2.6,0.6c1.3,0.2,2.4,0.5,3.3,0.7
			c0.9,0.3,1.6,0.7,2.2,1.4c0.6,0.7,0.9,1.6,0.9,2.8c0,1-0.3,1.9-0.9,2.7s-1.5,1.4-2.7,1.8c-1.2,0.4-2.6,0.7-4.2,0.7
			C181.8,204.2,180.4,204,179.1,203.7z"/>
		<path d="M208.6,186.6v5.6h9.9v4h-9.9v7.8h-4.9v-21.3h16.1v4h-11.2V186.6z"/>
		<path d="M235.3,189.1c1.4,1.2,2,3,2,5.5v9.3h-4.4v-2c-0.9,1.5-2.6,2.3-5,2.3c-1.3,0-2.3-0.2-3.3-0.6c-0.9-0.4-1.6-1-2.1-1.8
			s-0.7-1.6-0.7-2.6c0-1.5,0.6-2.7,1.7-3.6c1.1-0.9,2.9-1.3,5.3-1.3h3.8c0-1-0.3-1.8-0.9-2.4c-0.6-0.6-1.6-0.8-2.8-0.8
			c-0.9,0-1.7,0.1-2.6,0.4c-0.8,0.3-1.6,0.6-2.1,1.1l-1.7-3.3c0.9-0.6,2-1.1,3.2-1.5c1.2-0.3,2.5-0.5,3.8-0.5
			C232,187.3,233.9,187.9,235.3,189.1z M231.2,200.4c0.6-0.4,1.1-0.9,1.3-1.7V197h-3.3c-1.9,0-2.9,0.6-2.9,1.9
			c0,0.6,0.2,1.1,0.7,1.4c0.5,0.4,1.1,0.5,2,0.5C229.9,201,230.6,200.8,231.2,200.4z"/>
		<path d="M267.2,189.1c1.2,1.2,1.8,3,1.8,5.4v9.4h-4.7v-8.6c0-1.3-0.3-2.3-0.8-2.9c-0.5-0.6-1.3-1-2.3-1c-1.1,0-2,0.4-2.6,1.1
			c-0.6,0.7-1,1.8-1,3.2v8.2h-4.7v-8.6c0-2.6-1-3.9-3.1-3.9c-1.1,0-2,0.4-2.6,1.1s-1,1.8-1,3.2v8.2h-4.7v-16.4h4.5v1.9
			c0.6-0.7,1.4-1.2,2.2-1.6s1.9-0.5,2.9-0.5c1.2,0,2.2,0.2,3.1,0.7c0.9,0.5,1.7,1.1,2.3,2c0.7-0.9,1.5-1.5,2.5-2s2.1-0.7,3.4-0.7
			C264.3,187.3,266,187.9,267.2,189.1z"/>
		<path d="M274,184.5c-0.5-0.5-0.8-1.1-0.8-1.9s0.3-1.4,0.8-1.9s1.3-0.8,2.1-0.8c0.9,0,1.6,0.2,2.1,0.7s0.8,1.1,0.8,1.8
			c0,0.8-0.3,1.4-0.8,2c-0.5,0.5-1.3,0.8-2.1,0.8C275.2,185.3,274.5,185,274,184.5z M273.7,187.6h4.7V204h-4.7V187.6z"/>
		<path d="M283.4,181.4h4.7V204h-4.7V181.4z"/>
		<path d="M309.3,187.6l-7.4,17.4c-0.8,1.9-1.7,3.2-2.8,4c-1.1,0.8-2.4,1.2-4,1.2c-0.9,0-1.7-0.1-2.5-0.4c-0.8-0.3-1.5-0.6-2-1.1
			l1.7-3.4c0.4,0.3,0.8,0.6,1.3,0.8s0.9,0.3,1.4,0.3c0.6,0,1.2-0.2,1.6-0.5s0.8-0.8,1.1-1.6l0.1-0.2l-7.1-16.5h4.9l4.6,11.1
			l4.6-11.1H309.3z"/>
	</g>
</g>
<g>
	<g>
		<path d="M30.8,238.4c-1.8-0.9-3.1-2.3-4.1-3.9c-1-1.7-1.5-3.6-1.5-5.7c0-2.1,0.5-4,1.5-5.7s2.4-3,4.1-3.9c1.8-0.9,3.7-1.4,5.9-1.4
			c1.8,0,3.5,0.3,5,1s2.7,1.6,3.8,2.8l-3.2,2.9c-1.4-1.7-3.2-2.5-5.4-2.5c-1.3,0-2.5,0.3-3.5,0.9s-1.8,1.4-2.4,2.4s-0.9,2.2-0.9,3.5
			s0.3,2.5,0.9,3.5s1.4,1.8,2.4,2.4s2.2,0.9,3.5,0.9c2.1,0,3.9-0.8,5.4-2.5l3.2,2.9c-1,1.2-2.3,2.2-3.8,2.8s-3.2,1-5,1
			C34.5,239.8,32.6,239.3,30.8,238.4z"/>
		<path d="M51.5,238.6c-1.4-0.7-2.4-1.7-3.2-3s-1.2-2.7-1.2-4.4c0-1.6,0.4-3.1,1.2-4.4c0.8-1.3,1.8-2.3,3.2-3s2.9-1.1,4.6-1.1
			c1.7,0,3.3,0.4,4.6,1.1c1.4,0.7,2.4,1.7,3.2,3s1.2,2.7,1.2,4.4c0,1.6-0.4,3.1-1.2,4.4c-0.8,1.3-1.8,2.3-3.2,3s-2.9,1.1-4.6,1.1
			C54.4,239.7,52.9,239.3,51.5,238.6z M59.2,234.5c0.8-0.8,1.2-1.9,1.2-3.3s-0.4-2.5-1.2-3.3s-1.8-1.2-3-1.2s-2.2,0.4-3,1.2
			s-1.2,1.9-1.2,3.3s0.4,2.5,1.2,3.3s1.8,1.2,3,1.2S58.4,235.4,59.2,234.5z"/>
		<path d="M85.3,223.1v16.4h-4.5v-1.9c-0.6,0.7-1.4,1.3-2.3,1.6c-0.9,0.4-1.8,0.6-2.8,0.6c-2.1,0-3.9-0.6-5.1-1.9
			c-1.3-1.2-1.9-3.1-1.9-5.5v-9.2h4.7v8.5c0,2.6,1.1,4,3.3,4c1.1,0,2-0.4,2.7-1.1c0.7-0.7,1-1.8,1-3.3v-8.1h4.9V223.1z"/>
		<path d="M105,224.6c1.2,1.2,1.9,3,1.9,5.4v9.4h-4.7v-8.6c0-1.3-0.3-2.3-0.9-2.9c-0.6-0.6-1.4-1-2.5-1c-1.2,0-2.1,0.4-2.9,1.1
			s-1.1,1.8-1.1,3.3v8.1h-4.7V223h4.5v1.9c0.6-0.7,1.4-1.2,2.3-1.6c0.9-0.4,2-0.6,3.1-0.6C102.1,222.8,103.8,223.4,105,224.6z"/>
		<path d="M113.2,239.2c-1.3-0.3-2.3-0.8-3.1-1.3l1.6-3.4c0.7,0.5,1.6,0.8,2.6,1.1s2,0.4,3,0.4c2,0,3-0.5,3-1.5c0-0.5-0.3-0.8-0.8-1
			s-1.4-0.4-2.5-0.5c-1.3-0.2-2.4-0.4-3.3-0.7s-1.6-0.7-2.3-1.4c-0.6-0.7-1-1.6-1-2.9c0-1,0.3-2,0.9-2.8s1.5-1.4,2.6-1.9
			s2.5-0.7,4.1-0.7c1.2,0,2.3,0.1,3.5,0.4c1.1,0.3,2.1,0.6,2.8,1l-1.6,3.4c-1.4-0.8-3-1.2-4.7-1.2c-1,0-1.8,0.1-2.3,0.4
			c-0.5,0.3-0.8,0.6-0.8,1.1s0.3,0.9,0.8,1.1c0.5,0.2,1.4,0.4,2.6,0.6c1.3,0.2,2.4,0.5,3.3,0.7c0.9,0.3,1.6,0.7,2.2,1.4
			s0.9,1.6,0.9,2.8c0,1-0.3,1.9-0.9,2.7s-1.5,1.4-2.7,1.8c-1.2,0.4-2.6,0.7-4.2,0.7C115.8,239.7,114.5,239.5,113.2,239.2z"/>
		<path d="M144.3,232.6h-12.4c0.2,1,0.8,1.8,1.6,2.4c0.8,0.6,1.9,0.9,3.1,0.9c0.9,0,1.6-0.1,2.3-0.4c0.7-0.3,1.3-0.7,1.8-1.2
			l2.5,2.7c-1.5,1.8-3.8,2.6-6.8,2.6c-1.8,0-3.5-0.4-4.9-1.1c-1.4-0.7-2.5-1.7-3.3-3s-1.2-2.7-1.2-4.4c0-1.6,0.4-3,1.1-4.3
			c0.8-1.3,1.8-2.3,3.1-3s2.8-1.1,4.5-1.1c1.6,0,3.1,0.3,4.4,1c1.3,0.7,2.3,1.7,3.1,3c0.7,1.3,1.1,2.8,1.1,4.5
			C144.4,231.4,144.3,231.8,144.3,232.6z M133.2,227.3c-0.7,0.6-1.2,1.4-1.3,2.5h8.1c-0.2-1-0.6-1.9-1.3-2.5s-1.6-0.9-2.7-0.9
			C134.8,226.4,133.9,226.7,133.2,227.3z"/>
		<path d="M148,216.8h4.7v22.6H148V216.8z"/>
		<path d="M157.6,216.8h4.7v22.6h-4.7V216.8z"/>
		<path d="M167.5,220c-0.5-0.5-0.8-1.1-0.8-1.9s0.3-1.4,0.8-1.9s1.3-0.8,2.1-0.8c0.9,0,1.6,0.2,2.1,0.7s0.8,1.1,0.8,1.8
			c0,0.8-0.3,1.4-0.8,2c-0.5,0.5-1.3,0.8-2.1,0.8C168.8,220.8,168.1,220.5,167.5,220z M167.3,223.1h4.7v16.4h-4.7V223.1z"/>
		<path d="M191.8,224.6c1.2,1.2,1.9,3,1.9,5.4v9.4H189v-8.6c0-1.3-0.3-2.3-0.9-2.9c-0.6-0.6-1.4-1-2.5-1c-1.2,0-2.1,0.4-2.9,1.1
			s-1.1,1.8-1.1,3.3v8.1h-4.7V223h4.5v1.9c0.6-0.7,1.4-1.2,2.3-1.6c0.9-0.4,2-0.6,3.1-0.6C188.9,222.8,190.5,223.4,191.8,224.6z"/>
		<path d="M214.9,223.1v13.6c0,3-0.8,5.2-2.3,6.7c-1.6,1.5-3.8,2.2-6.8,2.2c-1.6,0-3.1-0.2-4.5-0.6c-1.4-0.4-2.6-0.9-3.5-1.7
			l1.9-3.4c0.7,0.6,1.6,1,2.6,1.4c1.1,0.3,2.1,0.5,3.2,0.5c1.6,0,2.9-0.4,3.6-1.1s1.2-1.9,1.2-3.4v-0.7c-1.2,1.4-3,2-5.2,2
			c-1.5,0-2.9-0.3-4.1-1c-1.2-0.7-2.2-1.6-3-2.8c-0.7-1.2-1.1-2.6-1.1-4.1c0-1.6,0.4-2.9,1.1-4.1c0.7-1.2,1.7-2.1,3-2.8
			c1.2-0.7,2.6-1,4.1-1c2.4,0,4.2,0.8,5.4,2.3V223h4.4V223.1z M209,233.6c0.8-0.7,1.2-1.7,1.2-2.9s-0.4-2.2-1.2-2.9
			s-1.8-1.1-3.1-1.1s-2.3,0.4-3.1,1.1c-0.8,0.7-1.2,1.7-1.2,2.9s0.4,2.2,1.2,2.9s1.8,1.1,3.1,1.1C207.2,234.7,208.2,234.4,209,233.6
			z"/>
		<path d="M233.5,238.4c-1.8-0.9-3.1-2.3-4.1-3.9c-1-1.7-1.5-3.6-1.5-5.7c0-2.1,0.5-4,1.5-5.7s2.4-3,4.1-3.9
			c1.8-0.9,3.7-1.4,5.9-1.4c1.8,0,3.5,0.3,5,1s2.7,1.6,3.8,2.8l-3.2,2.9c-1.4-1.7-3.2-2.5-5.4-2.5c-1.3,0-2.5,0.3-3.5,0.9
			s-1.8,1.4-2.4,2.4c-0.6,1-0.9,2.2-0.9,3.5s0.3,2.5,0.9,3.5s1.4,1.8,2.4,2.4s2.2,0.9,3.5,0.9c2.1,0,3.9-0.8,5.4-2.5l3.2,2.9
			c-1,1.2-2.3,2.2-3.8,2.8s-3.2,1-5,1C237.2,239.8,235.3,239.3,233.5,238.4z"/>
		<path d="M267,232.6h-12.4c0.2,1,0.8,1.8,1.6,2.4c0.8,0.6,1.9,0.9,3.1,0.9c0.9,0,1.6-0.1,2.3-0.4c0.7-0.3,1.3-0.7,1.8-1.2l2.5,2.7
			c-1.5,1.8-3.8,2.6-6.8,2.6c-1.8,0-3.5-0.4-4.9-1.1c-1.4-0.7-2.5-1.7-3.3-3s-1.2-2.7-1.2-4.4c0-1.6,0.4-3,1.1-4.3
			c0.8-1.3,1.8-2.3,3.1-3s2.8-1.1,4.5-1.1c1.6,0,3.1,0.3,4.4,1s2.3,1.7,3.1,3c0.7,1.3,1.1,2.8,1.1,4.5
			C267.1,231.4,267.1,231.8,267,232.6z M255.9,227.3c-0.7,0.6-1.2,1.4-1.3,2.5h8.1c-0.2-1-0.6-1.9-1.3-2.5c-0.7-0.6-1.6-0.9-2.7-0.9
			C257.5,226.4,256.6,226.7,255.9,227.3z"/>
		<path d="M285.6,224.6c1.2,1.2,1.9,3,1.9,5.4v9.4h-4.7v-8.6c0-1.3-0.3-2.3-0.9-2.9c-0.6-0.6-1.4-1-2.5-1c-1.2,0-2.1,0.4-2.9,1.1
			s-1.1,1.8-1.1,3.3v8.1h-4.7V223h4.5v1.9c0.6-0.7,1.4-1.2,2.3-1.6c0.9-0.4,2-0.6,3.1-0.6C282.7,222.8,284.4,223.4,285.6,224.6z"/>
		<path d="M302.8,238.6c-0.5,0.3-1,0.6-1.7,0.8s-1.4,0.3-2.1,0.3c-1.9,0-3.5-0.5-4.5-1.5c-1.1-1-1.6-2.5-1.6-4.4v-6.7h-2.5v-3.7h2.5
			v-4h4.7v4h4.1v3.7h-4.1v6.7c0,0.7,0.2,1.2,0.5,1.6c0.4,0.4,0.9,0.6,1.5,0.6c0.8,0,1.4-0.2,1.9-0.6L302.8,238.6z"/>
		<path d="M321.4,232.6H309c0.2,1,0.8,1.8,1.6,2.4c0.8,0.6,1.9,0.9,3.1,0.9c0.9,0,1.6-0.1,2.3-0.4c0.7-0.3,1.3-0.7,1.8-1.2l2.5,2.7
			c-1.5,1.8-3.8,2.6-6.8,2.6c-1.8,0-3.5-0.4-4.9-1.1c-1.4-0.7-2.5-1.7-3.3-3s-1.2-2.7-1.2-4.4c0-1.6,0.4-3,1.1-4.3
			c0.8-1.3,1.8-2.3,3.1-3c1.3-0.7,2.8-1.1,4.5-1.1c1.6,0,3.1,0.3,4.4,1s2.3,1.7,3.1,3c0.7,1.3,1.1,2.8,1.1,4.5
			C321.5,231.4,321.5,231.8,321.4,232.6z M310.3,227.3c-0.7,0.6-1.2,1.4-1.3,2.5h8.1c-0.2-1-0.6-1.9-1.3-2.5
			c-0.7-0.6-1.6-0.9-2.7-0.9C311.9,226.4,311,226.7,310.3,227.3z"/>
		<path d="M332,223.4c1-0.4,2.1-0.6,3.3-0.6v4.4c-0.5,0-0.9-0.1-1.1-0.1c-1.4,0-2.4,0.4-3.2,1.1c-0.8,0.8-1.2,1.9-1.2,3.4v7.7h-4.7
			v-16.4h4.5v2.2C330.3,224.4,331,223.8,332,223.4z"/>
	</g>
</g>
<g>
	<g>
		<path d="M7.5,306c-1.8-0.9-3.1-2.3-4.1-3.9c-1-1.7-1.5-3.6-1.5-5.7s0.5-4,1.5-5.7s2.4-3,4.1-3.9c1.8-0.9,3.7-1.4,5.9-1.4
			c1.8,0,3.5,0.3,5,1s2.7,1.6,3.8,2.8l-3.2,2.9c-1.4-1.7-3.2-2.5-5.4-2.5c-1.3,0-2.5,0.3-3.5,0.9s-1.8,1.4-2.4,2.4s-0.9,2.2-0.9,3.5
			s0.3,2.5,0.9,3.5s1.4,1.8,2.4,2.4s2.2,0.9,3.5,0.9c2.1,0,3.9-0.8,5.4-2.5l3.2,2.9c-1,1.2-2.3,2.2-3.8,2.8c-1.5,0.6-3.2,1-5,1
			C11.2,307.4,9.3,306.9,7.5,306z"/>
		<path d="M41,300.2H28.6c0.2,1,0.8,1.8,1.6,2.4c0.8,0.6,1.9,0.9,3.1,0.9c0.9,0,1.6-0.1,2.3-0.4s1.3-0.7,1.8-1.2l2.5,2.7
			c-1.5,1.8-3.8,2.6-6.8,2.6c-1.8,0-3.5-0.4-4.9-1.1s-2.5-1.7-3.3-3s-1.2-2.7-1.2-4.4c0-1.6,0.4-3,1.1-4.3c0.8-1.3,1.8-2.3,3.1-3
			c1.3-0.7,2.8-1.1,4.5-1.1c1.6,0,3.1,0.3,4.4,1c1.3,0.7,2.3,1.7,3.1,3c0.7,1.3,1.1,2.8,1.1,4.5C41.1,299,41.1,299.4,41,300.2z
			 M29.9,294.9c-0.7,0.6-1.2,1.4-1.3,2.5h8.1c-0.2-1-0.6-1.9-1.3-2.5s-1.6-0.9-2.7-0.9C31.5,294,30.6,294.3,29.9,294.9z"/>
		<path d="M59.6,292.2c1.2,1.2,1.9,3,1.9,5.4v9.4h-4.7v-8.6c0-1.3-0.3-2.3-0.9-2.9c-0.6-0.6-1.4-1-2.5-1c-1.2,0-2.1,0.4-2.9,1.1
			s-1.1,1.8-1.1,3.3v8.1h-4.7v-16.4h4.5v1.9c0.6-0.7,1.4-1.2,2.3-1.6c0.9-0.4,2-0.6,3.1-0.6C56.7,290.4,58.4,291,59.6,292.2z"/>
		<path d="M76.8,306.2c-0.5,0.3-1,0.6-1.7,0.8c-0.7,0.2-1.4,0.3-2.1,0.3c-1.9,0-3.5-0.5-4.5-1.5c-1.1-1-1.6-2.5-1.6-4.4v-6.7h-2.5
			V291h2.5v-4h4.7v4h4.1v3.7h-4.1v6.7c0,0.7,0.2,1.2,0.5,1.6c0.4,0.4,0.9,0.6,1.5,0.6c0.8,0,1.4-0.2,1.9-0.6L76.8,306.2z"/>
		<path d="M86.8,291c1-0.4,2.1-0.6,3.3-0.6v4.4c-0.5,0-0.9-0.1-1.1-0.1c-1.4,0-2.4,0.4-3.2,1.1c-0.8,0.8-1.2,1.9-1.2,3.4v7.7H80
			v-16.4h4.5v2.2C85.1,292,85.8,291.4,86.8,291z"/>
		<path d="M109.2,300.2H96.9c0.2,1,0.8,1.8,1.6,2.4c0.8,0.6,1.9,0.9,3.1,0.9c0.9,0,1.6-0.1,2.3-0.4c0.7-0.3,1.3-0.7,1.8-1.2l2.5,2.7
			c-1.5,1.8-3.8,2.6-6.8,2.6c-1.8,0-3.5-0.4-4.9-1.1s-2.5-1.7-3.3-3s-1.2-2.7-1.2-4.4c0-1.6,0.4-3,1.1-4.3c0.8-1.3,1.8-2.3,3.1-3
			c1.3-0.7,2.8-1.1,4.5-1.1c1.6,0,3.1,0.3,4.4,1s2.3,1.7,3.1,3c0.7,1.3,1.1,2.8,1.1,4.5C109.3,299,109.3,299.4,109.2,300.2z
			 M98.1,294.9c-0.7,0.6-1.2,1.4-1.3,2.5h8.1c-0.2-1-0.6-1.9-1.3-2.5c-0.7-0.6-1.6-0.9-2.7-0.9C99.8,294,98.9,294.3,98.1,294.9z"/>
		<path d="M138.8,284.5V307h-4.5v-1.9c-1.2,1.4-2.9,2.1-5.1,2.1c-1.5,0-2.9-0.3-4.2-1c-1.2-0.7-2.2-1.7-2.9-3s-1.1-2.8-1.1-4.4
			s0.4-3.2,1.1-4.4c0.7-1.3,1.7-2.3,2.9-3c1.2-0.7,2.6-1,4.2-1c2.1,0,3.7,0.7,4.9,2v-7.9L138.8,284.5L138.8,284.5z M132.9,302.1
			c0.8-0.8,1.2-1.9,1.2-3.3s-0.4-2.5-1.2-3.3s-1.8-1.2-3-1.2s-2.2,0.4-3,1.2c-0.8,0.8-1.2,1.9-1.2,3.3s0.4,2.5,1.2,3.3
			c0.8,0.8,1.8,1.2,3,1.2C131.1,303.4,132.1,303,132.9,302.1z"/>
		<path d="M159.6,300.2h-12.4c0.2,1,0.8,1.8,1.6,2.4s1.9,0.9,3.1,0.9c0.9,0,1.6-0.1,2.3-0.4s1.3-0.7,1.8-1.2l2.5,2.7
			c-1.5,1.8-3.8,2.6-6.8,2.6c-1.8,0-3.5-0.4-4.9-1.1s-2.5-1.7-3.3-3s-1.2-2.7-1.2-4.4c0-1.6,0.4-3,1.1-4.3c0.8-1.3,1.8-2.3,3.1-3
			s2.8-1.1,4.5-1.1c1.6,0,3.1,0.3,4.4,1c1.3,0.7,2.3,1.7,3.1,3c0.7,1.3,1.1,2.8,1.1,4.5C159.7,299,159.6,299.4,159.6,300.2z
			 M148.5,294.9c-0.7,0.6-1.2,1.4-1.3,2.5h8.1c-0.2-1-0.6-1.9-1.3-2.5s-1.6-0.9-2.7-0.9C150.1,294,149.2,294.3,148.5,294.9z"/>
		<path d="M175.6,306.2c-1.4-0.7-2.5-1.7-3.3-3s-1.2-2.7-1.2-4.4c0-1.6,0.4-3.1,1.2-4.4s1.9-2.3,3.3-3c1.4-0.7,3-1.1,4.7-1.1
			s3.2,0.4,4.5,1.1s2.2,1.8,2.8,3.1l-3.7,2c-0.9-1.5-2.1-2.3-3.7-2.3c-1.2,0-2.3,0.4-3.1,1.2c-0.8,0.8-1.2,1.9-1.2,3.3
			s0.4,2.5,1.2,3.3s1.8,1.2,3.1,1.2c1.6,0,2.8-0.8,3.7-2.3l3.7,2c-0.6,1.3-1.5,2.3-2.8,3s-2.8,1.1-4.5,1.1
			C178.6,307.3,177,306.9,175.6,306.2z"/>
		<path d="M193.8,306.2c-1.4-0.7-2.4-1.7-3.2-3s-1.2-2.7-1.2-4.4c0-1.6,0.4-3.1,1.2-4.4s1.8-2.3,3.2-3s2.9-1.1,4.6-1.1
			c1.7,0,3.3,0.4,4.6,1.1c1.4,0.7,2.4,1.7,3.2,3s1.2,2.7,1.2,4.4c0,1.6-0.4,3.1-1.2,4.4s-1.8,2.3-3.2,3s-2.9,1.1-4.6,1.1
			C196.7,307.3,195.2,306.9,193.8,306.2z M201.4,302.1c0.8-0.8,1.2-1.9,1.2-3.3s-0.4-2.5-1.2-3.3s-1.8-1.2-3-1.2s-2.2,0.4-3,1.2
			c-0.8,0.8-1.2,1.9-1.2,3.3s0.4,2.5,1.2,3.3s1.8,1.2,3,1.2S200.7,303,201.4,302.1z"/>
		<path d="M227.6,290.7V307h-4.5v-1.9c-0.6,0.7-1.4,1.3-2.3,1.6c-0.9,0.4-1.8,0.6-2.8,0.6c-2.1,0-3.9-0.6-5.1-1.9
			c-1.3-1.2-1.9-3.1-1.9-5.5v-9.2h4.7v8.5c0,2.6,1.1,4,3.3,4c1.1,0,2-0.4,2.7-1.1s1-1.8,1-3.3v-8.1H227.6z"/>
		<path d="M247.3,292.2c1.2,1.2,1.9,3,1.9,5.4v9.4h-4.7v-8.6c0-1.3-0.3-2.3-0.9-2.9c-0.6-0.6-1.4-1-2.5-1c-1.2,0-2.1,0.4-2.9,1.1
			s-1.1,1.8-1.1,3.3v8.1h-4.7v-16.4h4.5v1.9c0.6-0.7,1.4-1.2,2.3-1.6c0.9-0.4,2-0.6,3.1-0.6C244.4,290.4,246.1,291,247.3,292.2z"/>
		<path d="M255.5,306.8c-1.3-0.3-2.3-0.8-3.1-1.3l1.6-3.4c0.7,0.5,1.6,0.8,2.6,1.1c1,0.3,2,0.4,3,0.4c2,0,3-0.5,3-1.5
			c0-0.5-0.3-0.8-0.8-1s-1.4-0.4-2.5-0.5c-1.3-0.2-2.4-0.4-3.3-0.7c-0.9-0.3-1.6-0.7-2.3-1.4c-0.6-0.7-1-1.6-1-2.9
			c0-1,0.3-2,0.9-2.8c0.6-0.8,1.5-1.4,2.6-1.9c1.1-0.4,2.5-0.7,4.1-0.7c1.2,0,2.3,0.1,3.5,0.4c1.1,0.3,2.1,0.6,2.8,1L265,295
			c-1.4-0.8-3-1.2-4.7-1.2c-1,0-1.8,0.1-2.3,0.4s-0.8,0.6-0.8,1.1s0.3,0.9,0.8,1.1s1.4,0.4,2.6,0.6c1.3,0.2,2.4,0.5,3.3,0.7
			c0.9,0.3,1.6,0.7,2.2,1.4c0.6,0.7,0.9,1.6,0.9,2.8c0,1-0.3,1.9-0.9,2.7s-1.5,1.4-2.7,1.8s-2.6,0.7-4.2,0.7
			C258.1,307.3,256.8,307.1,255.5,306.8z"/>
		<path d="M286.5,300.2h-12.4c0.2,1,0.8,1.8,1.6,2.4c0.8,0.6,1.9,0.9,3.1,0.9c0.9,0,1.6-0.1,2.3-0.4c0.7-0.3,1.3-0.7,1.8-1.2
			l2.5,2.7c-1.5,1.8-3.8,2.6-6.8,2.6c-1.8,0-3.5-0.4-4.9-1.1s-2.5-1.7-3.3-3s-1.2-2.7-1.2-4.4c0-1.6,0.4-3,1.1-4.3
			c0.8-1.3,1.8-2.3,3.1-3c1.3-0.7,2.8-1.1,4.5-1.1c1.6,0,3.1,0.3,4.4,1s2.3,1.7,3.1,3c0.7,1.3,1.1,2.8,1.1,4.5
			C286.6,299,286.6,299.4,286.5,300.2z M275.4,294.9c-0.7,0.6-1.2,1.4-1.3,2.5h8.1c-0.2-1-0.6-1.9-1.3-2.5c-0.7-0.6-1.6-0.9-2.7-0.9
			S276.2,294.3,275.4,294.9z"/>
		<path d="M290.3,284.5h4.7V307h-4.7V284.5z"/>
		<path d="M299.9,284.5h4.7V307h-4.7V284.5z"/>
		<path d="M309.8,287.6c-0.5-0.5-0.8-1.1-0.8-1.9s0.3-1.4,0.8-1.9s1.3-0.8,2.1-0.8c0.9,0,1.6,0.2,2.1,0.7s0.8,1.1,0.8,1.8
			c0,0.8-0.3,1.4-0.8,2c-0.5,0.5-1.3,0.8-2.1,0.8C311.1,288.4,310.4,288.1,309.8,287.6z M309.6,290.7h4.7V307h-4.7V290.7z"/>
		<path d="M334.1,292.2c1.2,1.2,1.9,3,1.9,5.4v9.4h-4.7v-8.6c0-1.3-0.3-2.3-0.9-2.9s-1.4-1-2.5-1c-1.2,0-2.1,0.4-2.9,1.1
			s-1.1,1.8-1.1,3.3v8.1h-4.7v-16.4h4.5v1.9c0.6-0.7,1.4-1.2,2.3-1.6s2-0.6,3.1-0.6C331.2,290.4,332.8,291,334.1,292.2z"/>
		<path d="M357.8,290.7v13.6c0,3-0.8,5.2-2.3,6.7c-1.6,1.5-3.8,2.2-6.8,2.2c-1.6,0-3.1-0.2-4.5-0.6s-2.6-0.9-3.5-1.7l1.9-3.4
			c0.7,0.6,1.6,1,2.6,1.4c1.1,0.3,2.1,0.5,3.2,0.5c1.6,0,2.9-0.4,3.6-1.1s1.2-1.9,1.2-3.4v-0.7c-1.2,1.4-3,2-5.2,2
			c-1.5,0-2.9-0.3-4.1-1s-2.2-1.6-3-2.8c-0.7-1.2-1.1-2.6-1.1-4.1c0-1.6,0.4-2.9,1.1-4.1s1.7-2.1,3-2.8c1.2-0.7,2.6-1,4.1-1
			c2.4,0,4.2,0.8,5.4,2.3v-2.1h4.4V290.7z M351.9,301.2c0.8-0.7,1.2-1.7,1.2-2.9c0-1.2-0.4-2.2-1.2-2.9s-1.8-1.1-3.1-1.1
			c-1.3,0-2.3,0.4-3.1,1.1c-0.8,0.7-1.2,1.7-1.2,2.9c0,1.2,0.4,2.2,1.2,2.9c0.8,0.7,1.8,1.1,3.1,1.1
			C350.1,302.3,351.1,302,351.9,301.2z"/>
	</g>
</g>
<g>
	<g>
		<path d="M23.3,325.2v5.6h9.9v4h-9.9v7.8h-4.9v-21.3h16.1v4H23.3V325.2z"/>
		<path d="M49.9,327.7c1.4,1.2,2,3,2,5.5v9.3h-4.4v-2c-0.9,1.5-2.6,2.3-5,2.3c-1.3,0-2.3-0.2-3.3-0.6c-0.9-0.4-1.6-1-2.1-1.8
			s-0.7-1.6-0.7-2.6c0-1.5,0.6-2.7,1.7-3.6c1.1-0.9,2.9-1.3,5.3-1.3h3.8c0-1-0.3-1.8-0.9-2.4c-0.6-0.6-1.6-0.8-2.8-0.8
			c-0.9,0-1.7,0.1-2.6,0.4c-0.8,0.3-1.6,0.6-2.1,1.1l-1.7-3.3c0.9-0.6,2-1.1,3.2-1.5c1.2-0.3,2.5-0.5,3.8-0.5
			C46.6,325.9,48.6,326.5,49.9,327.7z M45.9,339c0.6-0.4,1.1-0.9,1.3-1.7v-1.7H44c-1.9,0-2.9,0.6-2.9,1.9c0,0.6,0.2,1.1,0.7,1.4
			c0.5,0.4,1.1,0.5,2,0.5C44.5,339.6,45.2,339.4,45.9,339z"/>
		<path d="M82.6,327.7c1.2,1.2,1.8,3,1.8,5.4v9.4h-4.7v-8.6c0-1.3-0.3-2.3-0.8-2.9s-1.3-1-2.3-1c-1.1,0-2,0.4-2.6,1.1s-1,1.8-1,3.2
			v8.2h-4.7v-8.6c0-2.6-1-3.9-3.1-3.9c-1.1,0-2,0.4-2.6,1.1s-1,1.8-1,3.2v8.2h-4.7v-16.4h4.5v1.9c0.6-0.7,1.4-1.2,2.2-1.6
			c0.9-0.4,1.9-0.5,2.9-0.5c1.2,0,2.2,0.2,3.1,0.7s1.7,1.1,2.3,2c0.7-0.9,1.5-1.5,2.5-2s2.1-0.7,3.4-0.7
			C79.7,325.9,81.4,326.5,82.6,327.7z"/>
		<path d="M89.4,323.1c-0.5-0.5-0.8-1.1-0.8-1.9s0.3-1.4,0.8-1.9s1.3-0.8,2.1-0.8c0.9,0,1.6,0.2,2.1,0.7s0.8,1.1,0.8,1.8
			c0,0.8-0.3,1.4-0.8,2c-0.5,0.5-1.3,0.8-2.1,0.8C90.6,323.9,89.9,323.6,89.4,323.1z M89.1,326.2h4.7v16.4h-4.7V326.2z"/>
		<path d="M98.8,319.9h4.7v22.6h-4.7V319.9z"/>
		<path d="M108.7,323.1c-0.5-0.5-0.8-1.1-0.8-1.9s0.3-1.4,0.8-1.9s1.3-0.8,2.1-0.8c0.9,0,1.6,0.2,2.1,0.7s0.8,1.1,0.8,1.8
			c0,0.8-0.3,1.4-0.8,2c-0.5,0.5-1.3,0.8-2.1,0.8C109.9,323.9,109.2,323.6,108.7,323.1z M108.4,326.2h4.7v16.4h-4.7V326.2z"/>
		<path d="M130.5,327.7c1.4,1.2,2,3,2,5.5v9.3h-4.4v-2c-0.9,1.5-2.6,2.3-5,2.3c-1.3,0-2.3-0.2-3.3-0.6c-0.9-0.4-1.6-1-2.1-1.8
			s-0.7-1.6-0.7-2.6c0-1.5,0.6-2.7,1.7-3.6s2.9-1.3,5.3-1.3h3.8c0-1-0.3-1.8-0.9-2.4s-1.6-0.8-2.8-0.8c-0.9,0-1.7,0.1-2.6,0.4
			c-0.8,0.3-1.6,0.6-2.1,1.1l-1.7-3.3c0.9-0.6,2-1.1,3.2-1.5c1.2-0.3,2.5-0.5,3.8-0.5C127.2,325.9,129.2,326.5,130.5,327.7z
			 M126.5,339c0.6-0.4,1.1-0.9,1.3-1.7v-1.7h-3.3c-1.9,0-2.9,0.6-2.9,1.9c0,0.6,0.2,1.1,0.7,1.4c0.5,0.4,1.1,0.5,2,0.5
			C125.1,339.6,125.8,339.4,126.5,339z"/>
		<path d="M137.1,319.9h4.7v22.6h-4.7V319.9z"/>
		<path d="M172.6,319.9v22.6H168v-1.9c-1.2,1.4-2.9,2.1-5.1,2.1c-1.5,0-2.9-0.3-4.2-1c-1.2-0.7-2.2-1.7-2.9-3s-1.1-2.8-1.1-4.4
			s0.4-3.2,1.1-4.4c0.7-1.3,1.7-2.3,2.9-3s2.6-1,4.2-1c2.1,0,3.7,0.7,4.9,2V320h4.8V319.9z M166.7,337.6c0.8-0.8,1.2-1.9,1.2-3.3
			s-0.4-2.5-1.2-3.3s-1.8-1.2-3-1.2s-2.2,0.4-3,1.2c-0.8,0.8-1.2,1.9-1.2,3.3s0.4,2.5,1.2,3.3s1.8,1.2,3,1.2
			C164.9,338.9,165.9,338.5,166.7,337.6z"/>
		<path d="M193.4,335.7H181c0.2,1,0.8,1.8,1.6,2.4s1.9,0.9,3.1,0.9c0.9,0,1.6-0.1,2.3-0.4s1.3-0.7,1.8-1.2l2.5,2.7
			c-1.5,1.8-3.8,2.6-6.8,2.6c-1.8,0-3.5-0.4-4.9-1.1s-2.5-1.7-3.3-3s-1.2-2.7-1.2-4.4c0-1.6,0.4-3,1.1-4.3c0.8-1.3,1.8-2.3,3.1-3
			s2.8-1.1,4.5-1.1c1.6,0,3.1,0.3,4.4,1c1.3,0.7,2.3,1.7,3.1,3c0.7,1.3,1.1,2.8,1.1,4.5C193.5,334.5,193.4,334.9,193.4,335.7z
			 M182.3,330.4c-0.7,0.6-1.2,1.4-1.3,2.5h8.1c-0.2-1-0.6-1.9-1.3-2.5s-1.6-0.9-2.7-0.9C183.9,329.5,183,329.8,182.3,330.4z"/>
		<path d="M210.9,325.2h-6.8v-4h18.6v4h-6.8v17.3H211v-17.3H210.9z"/>
		<path d="M225.4,323.1c-0.5-0.5-0.8-1.1-0.8-1.9s0.3-1.4,0.8-1.9s1.3-0.8,2.1-0.8c0.9,0,1.6,0.2,2.1,0.7s0.8,1.1,0.8,1.8
			c0,0.8-0.3,1.4-0.8,2c-0.5,0.5-1.3,0.8-2.1,0.8C226.6,323.9,225.9,323.6,225.4,323.1z M225.1,326.2h4.7v16.4h-4.7V326.2z"/>
		<path d="M260.6,327.7c1.2,1.2,1.8,3,1.8,5.4v9.4h-4.7v-8.6c0-1.3-0.3-2.3-0.8-2.9s-1.3-1-2.3-1c-1.1,0-2,0.4-2.6,1.1s-1,1.8-1,3.2
			v8.2h-4.7v-8.6c0-2.6-1-3.9-3.1-3.9c-1.1,0-2,0.4-2.6,1.1s-1,1.8-1,3.2v8.2h-4.7v-16.4h4.5v1.9c0.6-0.7,1.4-1.2,2.2-1.6
			s1.9-0.5,2.9-0.5c1.2,0,2.2,0.2,3.1,0.7c0.9,0.5,1.7,1.1,2.3,2c0.7-0.9,1.5-1.5,2.5-2s2.1-0.7,3.4-0.7
			C257.8,325.9,259.4,326.5,260.6,327.7z"/>
		<path d="M293,327.7c1.2,1.2,1.8,3,1.8,5.4v9.4h-4.7v-8.6c0-1.3-0.3-2.3-0.8-2.9s-1.3-1-2.3-1c-1.1,0-2,0.4-2.6,1.1s-1,1.8-1,3.2
			v8.2h-4.7v-8.6c0-2.6-1-3.9-3.1-3.9c-1.1,0-2,0.4-2.6,1.1s-1,1.8-1,3.2v8.2h-4.7v-16.4h4.5v1.9c0.6-0.7,1.4-1.2,2.2-1.6
			s1.9-0.5,2.9-0.5c1.2,0,2.2,0.2,3.1,0.7s1.7,1.1,2.3,2c0.7-0.9,1.5-1.5,2.5-2s2.1-0.7,3.4-0.7C290.2,325.9,291.8,326.5,293,327.7z
			"/>
		<path d="M299.8,323.1c-0.5-0.5-0.8-1.1-0.8-1.9s0.3-1.4,0.8-1.9s1.3-0.8,2.1-0.8c0.9,0,1.6,0.2,2.1,0.7s0.8,1.1,0.8,1.8
			c0,0.8-0.3,1.4-0.8,2c-0.5,0.5-1.3,0.8-2.1,0.8C301.1,323.9,300.4,323.6,299.8,323.1z M299.6,326.2h4.7v16.4h-4.7V326.2z"/>
		<path d="M324.1,327.7c1.2,1.2,1.9,3,1.9,5.4v9.4h-4.7v-8.6c0-1.3-0.3-2.3-0.9-2.9s-1.4-1-2.5-1c-1.2,0-2.1,0.4-2.9,1.1
			s-1.1,1.8-1.1,3.3v8.1h-4.7v-16.4h4.5v1.9c0.6-0.7,1.4-1.2,2.3-1.6s2-0.6,3.1-0.6C321.2,325.9,322.8,326.5,324.1,327.7z"/>
		<path d="M332.2,342.3c-1.3-0.3-2.3-0.8-3.1-1.3l1.6-3.4c0.7,0.5,1.6,0.8,2.6,1.1c1,0.3,2,0.4,3,0.4c2,0,3-0.5,3-1.5
			c0-0.5-0.3-0.8-0.8-1s-1.4-0.4-2.5-0.5c-1.3-0.2-2.4-0.4-3.3-0.7c-0.9-0.3-1.6-0.7-2.3-1.4c-0.6-0.7-1-1.6-1-2.9
			c0-1,0.3-2,0.9-2.8s1.5-1.4,2.6-1.9s2.5-0.7,4.1-0.7c1.2,0,2.3,0.1,3.5,0.4c1.1,0.3,2.1,0.6,2.8,1l-1.6,3.4
			c-1.4-0.8-3-1.2-4.7-1.2c-1,0-1.8,0.1-2.3,0.4s-0.8,0.6-0.8,1.1s0.3,0.9,0.8,1.1s1.4,0.4,2.6,0.6c1.3,0.2,2.4,0.5,3.3,0.7
			c0.9,0.3,1.6,0.7,2.2,1.4c0.6,0.7,0.9,1.6,0.9,2.8c0,1-0.3,1.9-0.9,2.7s-1.5,1.4-2.7,1.8s-2.6,0.7-4.2,0.7
			C334.9,342.8,333.5,342.6,332.2,342.3z"/>
	</g>
</g>
<path id="Path_355" class="st2" d="M357,263.9H3c-1.1,0.3-2.1-0.3-2.4-1.4s0.3-2.1,1.4-2.4c0.3-0.1,0.7-0.1,1,0h354
	c1.1-0.3,2.1,0.3,2.4,1.4s-0.3,2.1-1.4,2.4C357.7,264,357.3,264,357,263.9"/>
</svg>
