<svg xmlns="http://www.w3.org/2000/svg" width="1200" height="1200" viewBox="0 0 1200 1200"><path d="M600 0C436.7 0 416.7 0 353.3 3.3 303.2 4.4 253.6 14 206.6 31.6c-81 30.1-144.9 94-175 175-17.6 47-27.2 96.5-28.3 146.7C0 416.7 0 436.7 0 600s0 183.3 3.3 246.7c1.1 50.1 10.7 99.7 28.3 146.7 30.1 81 94 144.9 175 175 47 17.6 96.5 27.2 146.7 28.3 63.3 3.3 83.3 3.3 246.7 3.3s183.3 0 246.7-3.3c50.1-1.1 99.7-10.7 146.7-28.3 81-30.1 144.9-94 175-175 17.6-47 27.2-96.5 28.3-146.7 3.3-63.3 3.3-83.3 3.3-246.7s0-183.3-3.3-246.7c-1.1-50.1-10.7-99.7-28.3-146.7-30.1-81-94-144.9-175-175-47-17.6-96.5-27.2-146.7-28.3C783.3 0 763.3 0 600 0zm0 108.3c160 0 180 0 241.7 3.3 38.1.3 75.8 7.1 111.7 20 26 10.4 49.7 25.7 70 45 19.3 20.3 34.6 44 45 70 12.9 35.8 19.7 73.6 20 111.7 3.3 61.7 3.3 81.7 3.3 241.7s0 180-3.3 241.7c-.3 38.1-7.1 75.8-20 111.7-19.9 53.1-61.9 95.1-115 115-35.8 12.9-73.6 19.7-111.7 20-61.7 3.3-81.7 3.3-241.7 3.3s-180 0-241.7-3.3c-38.1-.3-75.8-7.1-111.7-20-26-10.4-49.7-25.7-70-45-19.3-20.3-34.6-44-45-70-12.9-35.8-19.7-73.6-20-111.7-3.3-61.7-3.3-81.7-3.3-241.7s0-180 3.3-241.7c.3-38.1 7.1-75.8 20-111.7 10.4-26 25.7-49.7 45-70 20.3-19.3 44-34.6 70-45 35.8-12.9 73.6-19.7 111.7-20 61.7-3.3 81.7-3.3 241.7-3.3"/><path d="M600 800c-110.5 0-200-89.5-200-200s89.5-200 200-200 200 89.5 200 200-89.5 200-200 200zm0-508.3c-170.3 0-308.3 138-308.3 308.3s138 308.3 308.3 308.3 308.3-138 308.3-308.3-138-308.3-308.3-308.3zM991.7 280c0 39.6-32.1 71.7-71.7 71.7s-71.7-32.1-71.7-71.7 32.1-71.7 71.7-71.7 71.7 32.1 71.7 71.7z"/></svg>