<svg id="Layer_1" data-name="Layer 1" xmlns="http://www.w3.org/2000/svg" viewBox="0 0 3870.1 1200"><defs><style>.cls-1{fill:#111113;}</style></defs><path class="cls-1" d="M1194.54,805.91l0-2.29c-1.71-64.59-27.52-104.75-67.35-104.75-43.36,0-60.32,30.1-60.32,97.61,0,80.07-31.77,144.07-91.87,185.09-43.91,30-101.83,46.48-167.48,47.74-62.26,1.24-129.18-11.37-192.78-36.16-11.48-4.47-17.62-16.85-14-28.18a22.4,22.4,0,0,1,11.81-13.51,22.65,22.65,0,0,1,17.92-.63c119.5,46.75,244.73,44.18,319-6.55,47.89-32.69,72.17-82.41,72.17-147.8,0-46.51,7-82.37,25.59-106.58,18.41-24,45.28-36.19,79.89-36.19h.83a28.66,28.66,0,0,0,24-12.79,27.53,27.53,0,0,0,2.41-26.47C1115.2,522.76,1050,443.22,964.83,382.81a215.1,215.1,0,0,0,13.92-75.87c0-34.66-8.43-67.86-23.84-98.54L955,28.58a28.52,28.52,0,0,0-38.07-26.9L768.63,54.34C717.11,35.11,658.91,24.27,597.29,24.27S477.47,35.11,426,54.34L277.62,1.67a28.52,28.52,0,0,0-38.07,26.88V208.62c-15.33,30.62-23.72,63.74-23.72,98.32a215,215,0,0,0,13.9,75.82A595.42,595.42,0,0,0,174.78,427C62.07,529.56,0,665.82,0,810.73c0,72,15.69,134.79,46.64,186.72C75.45,1045.78,118.26,1086,173.9,1117c98.85,55.07,241.3,83,423.4,83s324.55-27.93,423.4-83c55.63-31,98.45-71.22,127.25-119.55,31-51.93,46.65-114.75,46.65-186.72C1194.6,809.12,1194.57,807.52,1194.54,805.91Z"/><path class="cls-1" d="M1560.41,228.86v42.57H1450.78v67.44h84v41.81h-84V491.82H1398v-263Z"/><path class="cls-1" d="M1596.76,330.58q12.62-24.48,34.28-37.67t48.41-13.19q23.35,0,40.88,9.42t28.06,23.73V283.11h53.12V491.82h-53.12V461.3q-10.17,14.7-28.06,24.3t-41.25,9.61a88.7,88.7,0,0,1-48-13.56q-21.66-13.56-34.28-38.24t-12.62-56.7Q1584.14,355.06,1596.76,330.58Zm144.1,23.92a53.29,53.29,0,0,0-20.34-21.1,54.49,54.49,0,0,0-27.51-7.34,53,53,0,0,0-47.27,28.06q-7.74,13.77-7.73,32.59t7.73,33a55.52,55.52,0,0,0,20.34,21.66,51.68,51.68,0,0,0,26.93,7.53,54.49,54.49,0,0,0,27.51-7.34,53.23,53.23,0,0,0,20.34-21.1q7.53-13.76,7.53-33T1740.86,354.5Z"/><path class="cls-1" d="M1914.53,326.44v101q0,10.55,5.09,15.26t17.14,4.71h24.48v44.45h-33.15q-66.67,0-66.68-64.8V326.44h-24.86V283.11h24.86V231.5h53.12v51.61h46.71v43.33Z"/><path class="cls-1" d="M2274.67,379.18A64.88,64.88,0,0,1,2289,420.62q0,21.11-10.36,37.11t-30,25q-19.59,9-46.34,9H2089v-263h108.49q26.74,0,46.15,8.67T2273,261.64a63.18,63.18,0,0,1,10,35q0,23-12.24,38.43T2238.13,357A59.09,59.09,0,0,1,2274.67,379.18Zm-133-41.82h48.22q18.84,0,29-8.48t10.17-24.3q0-15.81-10.17-24.48t-29-8.67h-48.22Zm83.07,102.47q10.74-9,10.73-25.62,0-16.95-11.3-26.56t-30.51-9.6h-52v70.82h53.12Q2214,448.87,2224.76,439.83Z"/><path class="cls-1" d="M2383.92,213V491.82h-52.74V213Z"/><path class="cls-1" d="M2427.43,330.58q12.63-24.48,34.29-37.67t48.41-13.19q23.35,0,40.87,9.42t28.07,23.73V283.11h53.12V491.82h-53.12V461.3Q2568.9,476,2551,485.6t-41.25,9.61a88.69,88.69,0,0,1-48-13.56q-21.67-13.56-34.29-38.24t-12.62-56.7Q2414.81,355.06,2427.43,330.58Zm144.1,23.92a53.16,53.16,0,0,0-20.34-21.1,54.45,54.45,0,0,0-27.5-7.34,53,53,0,0,0-47.28,28.06q-7.72,13.77-7.72,32.59t7.72,33a55.59,55.59,0,0,0,20.34,21.66,51.69,51.69,0,0,0,26.94,7.53,54.45,54.45,0,0,0,27.5-7.34,53.1,53.1,0,0,0,20.34-21.1q7.53-13.76,7.54-33T2571.53,354.5Z"/><path class="cls-1" d="M2675.88,330.77a94.25,94.25,0,0,1,36.55-37.68q23.36-13.36,53.49-13.37,38.8,0,64.24,19.4t34.09,54.44h-56.89a41.64,41.64,0,0,0-15.25-21.29q-10.74-7.71-26.56-7.72-22.61,0-35.79,16.39t-13.19,46.53q0,29.76,13.19,46.14T2765.55,450q32,0,41.81-28.63h56.89q-8.67,33.9-34.28,53.87t-64,20q-30.14,0-53.49-13.37a94.25,94.25,0,0,1-36.55-37.68q-13.18-24.3-13.18-56.69T2675.88,330.77Z"/><path class="cls-1" d="M3019.08,491.82l-70.82-88.91v88.91h-52.75V213h52.75v158.6l70.07-88.53h68.56L2995,387.84l92.68,104Z"/><path class="cls-1" d="M3209.89,290.46a125.12,125.12,0,0,1,47.85-47.85q30.32-17.13,68-17.14,44.07,0,77.23,22.61t46.33,62.53h-60.65q-9-18.83-25.43-28.25t-37.86-9.42q-23,0-40.88,10.74A73.21,73.21,0,0,0,3256.61,314q-10,19.59-10,46,0,26,10,45.78t27.87,30.51Q3302.38,447,3325.36,447q21.48,0,37.86-9.61t25.43-28.44h60.65q-13.18,40.32-46.15,62.72t-77.41,22.42q-37.68,0-68-17.14a125.45,125.45,0,0,1-47.85-47.66q-17.52-30.51-17.52-69.32T3209.89,290.46Z"/><path class="cls-1" d="M3493.57,330.58q12.61-24.48,34.28-37.67t48.41-13.19q23.35,0,40.87,9.42t28.07,23.73V283.11h53.12V491.82H3645.2V461.3Q3635,476,3617.13,485.6t-41.25,9.61a88.69,88.69,0,0,1-48-13.56q-21.67-13.56-34.28-38.24T3481,386.71Q3481,355.06,3493.57,330.58Zm144.1,23.92a53.25,53.25,0,0,0-20.35-21.1,54.43,54.43,0,0,0-27.5-7.34,53,53,0,0,0-47.28,28.06q-7.73,13.77-7.72,32.59t7.72,33a55.66,55.66,0,0,0,20.34,21.66,51.72,51.72,0,0,0,26.94,7.53,54.43,54.43,0,0,0,27.5-7.34,53.19,53.19,0,0,0,20.35-21.1q7.53-13.76,7.53-33T3637.67,354.5Z"/><path class="cls-1" d="M3811.34,326.44v101q0,10.55,5.08,15.26t17.14,4.71h24.49v44.45H3824.9q-66.69,0-66.68-64.8V326.44h-24.87V283.11h24.87V231.5h53.12v51.61h46.71v43.33Z"/><path class="cls-1" d="M1439.29,937.11q-22.05-9.4-34.85-27.12t-13.19-41.82h56.51q1.14,16.2,11.49,25.62t28.45,9.42q18.45,0,29-8.85t10.54-23.17q0-11.67-7.15-19.22a50.28,50.28,0,0,0-17.9-11.86,297.3,297.3,0,0,0-29.57-9.61Q1447,823,1431,815.62a72.8,72.8,0,0,1-27.5-22.23Q1392,778.51,1392,753.65q0-23.35,11.68-40.69t32.77-26.56q21.09-9.23,48.22-9.23,40.69,0,66.12,19.78t28.07,55.19h-58a30.18,30.18,0,0,0-11.49-22.42q-10.74-8.84-28.44-8.85-15.47,0-24.68,7.91t-9.23,23a23.72,23.72,0,0,0,7,17.52,52.86,52.86,0,0,0,17.33,11.3q10.35,4.33,29.2,10,25.6,7.53,41.81,15.07a75.15,75.15,0,0,1,27.88,22.6q11.67,15.07,11.68,39.56A74.38,74.38,0,0,1,1571,907q-10.92,18.07-32,28.82t-50.1,10.73Q1461.32,946.53,1439.29,937.11Z"/><path class="cls-1" d="M1688.87,778.51v101q0,10.56,5.08,15.26t17.15,4.71h24.48V943.9h-33.15q-66.67,0-66.68-64.8V778.51h-24.86V735.19h24.86V683.58h53.12v51.61h46.71v43.32Z"/><path class="cls-1" d="M1970.66,735.19V943.9h-53.12V917.52A69.52,69.52,0,0,1,1891,938.81a82.58,82.58,0,0,1-35.6,7.72q-24.5,0-43.33-10.36t-29.57-30.51q-10.74-20.16-10.74-48V735.19h52.75v114.9q0,24.87,12.43,38.24t33.9,13.37q21.86,0,34.29-13.37t12.43-38.24V735.19Z"/><path class="cls-1" d="M2021.7,782.66q12.61-24.49,34.47-37.68a92.26,92.26,0,0,1,48.6-13.18,88.64,88.64,0,0,1,38.8,8.85Q2162,749.5,2173,764.2V665.12h53.49V943.9H2173V913q-9.81,15.45-27.5,24.87t-41.07,9.42a89.58,89.58,0,0,1-48.22-13.57q-21.86-13.56-34.47-38.23t-12.62-56.7Q2009.08,807.14,2021.7,782.66Zm144.1,23.92a53.23,53.23,0,0,0-20.34-21.1,54.36,54.36,0,0,0-27.5-7.35,53,53,0,0,0-47.28,28.07Q2063,820,2063,838.79t7.73,33A55.45,55.45,0,0,0,2091,893.41,51.61,51.61,0,0,0,2118,901a54.36,54.36,0,0,0,27.5-7.35,53.1,53.1,0,0,0,20.34-21.1q7.53-13.74,7.54-33T2165.8,806.58Z"/><path class="cls-1" d="M2281.64,701.47a30.93,30.93,0,0,1,0-44.08q9.22-8.85,23.17-8.85t23.17,8.85a30.93,30.93,0,0,1,0,44.08q-9.24,8.85-23.17,8.85T2281.64,701.47Zm49.17,33.72V943.9h-52.75V735.19Z"/><path class="cls-1" d="M2421.22,933.91a96.27,96.27,0,0,1-37.86-37.86q-13.76-24.48-13.75-56.51T2383.74,783a98.2,98.2,0,0,1,38.61-37.86q24.48-13.36,54.63-13.37t54.62,13.37A98.22,98.22,0,0,1,2570.22,783q14.13,24.5,14.13,56.51t-14.51,56.51a100.37,100.37,0,0,1-39.18,37.86q-24.67,13.38-55.19,13.38Q2445.32,947.29,2421.22,933.91Zm81.19-39.55q12.62-7,20.15-20.91t7.54-33.91q0-29.76-15.64-45.77t-38.24-16q-22.59,0-37.86,16t-15.25,45.77q0,29.76,14.88,45.77t37.48,16A54.87,54.87,0,0,0,2502.41,894.36Z"/></svg>