<?xml version="1.0" encoding="utf-8"?>
<!-- Generator: Adobe Illustrator 25.4.1, SVG Export Plug-In . SVG Version: 6.00 Build 0)  -->
<svg version="1.1" id="Layer_1" xmlns="http://www.w3.org/2000/svg" xmlns:xlink="http://www.w3.org/1999/xlink" x="0px" y="0px"
	 viewBox="0 0 1200 1200" style="enable-background:new 0 0 1200 1200;" xml:space="preserve">
<g>
	<path d="M1071.4,171.4H128.6C57.7,171.4,0,229.1,0,300v600c0,70.9,57.7,128.6,128.6,128.6h942.9c70.9,0,128.6-57.7,128.6-128.6V300
		C1200,229.1,1142.3,171.4,1071.4,171.4z M600,670.1L155.4,257.1h889.2L600,670.1z M398.6,600L85.7,890.6V309.4L398.6,600z
		 M461.6,658.5L570.8,760c8.2,7.6,18.7,11.4,29.2,11.4c10.5,0,20.9-3.8,29.2-11.4l109.3-101.5l306.1,284.4H155.4L461.6,658.5z
		 M801.4,600l312.9-290.6v581.2L801.4,600z"/>
</g>
</svg>
