<?xml version="1.0" encoding="utf-8"?>
<!-- Generator: Adobe Illustrator 25.4.1, SVG Export Plug-In . SVG Version: 6.00 Build 0)  -->
<svg version="1.1" id="Layer_1" xmlns="http://www.w3.org/2000/svg" xmlns:xlink="http://www.w3.org/1999/xlink" x="0px" y="0px"
	 viewBox="0 0 1200 1200" style="enable-background:new 0 0 1200 1200;" xml:space="preserve">
<style type="text/css">
	.st0{fill:#231F20;}
</style>
<g>
	<path class="st0" d="M1102.2,300H97.8c-55.2,0-100-44.8-100-100s44.8-100,100-100h1004.4c55.2,0,100,44.8,100,100
		S1157.4,300,1102.2,300z"/>
</g>
<g>
	<path class="st0" d="M1102.2,1100H97.8c-55.2,0-100-44.8-100-100s44.8-100,100-100h1004.4c55.2,0,100,44.8,100,100
		S1157.4,1100,1102.2,1100z"/>
</g>
<g>
	<path class="st0" d="M1102.2,700H97.8c-55.2,0-100-44.8-100-100s44.8-100,100-100h1004.4c55.2,0,100,44.8,100,100
		S1157.4,700,1102.2,700z"/>
</g>
</svg>
