<svg xmlns="http://www.w3.org/2000/svg"><symbol id="x" viewBox="0 0 1200 1200"><g fill="#231f20"><path d="M921.7 1063.1L136.9 278.3c-43.1-43.1-46.5-109.8-7.4-148.8s105.7-35.7 148.8 7.4l784.8 784.8c43.1 43.1 46.5 109.8 7.4 148.8-39 39.1-105.7 35.7-148.8-7.4z"/><path d="M136.9 921.7l784.8-784.8c43.1-43.1 109.8-46.5 148.8-7.4 39 39 35.7 105.7-7.4 148.8l-784.8 784.8c-43.1 43.1-109.8 46.5-148.8 7.4s-35.7-105.7 7.4-148.8z"/></g></symbol><symbol id="facebook" viewBox="0 0 1200 1200"><path d="M1200 600C1200 268.6 931.4 0 600 0S0 268.6 0 600c0 299.5 219.4 547.7 506.2 592.7V773.4H353.9V600h152.3V467.8c0-150.4 89.5-233.4 226.6-233.4 65.6 0 134.3 11.7 134.3 11.7v147.7h-75.7c-74.5 0-97.7 46.3-97.7 93.8V600h166.4l-26.6 173.4H693.8v419.3c286.8-45 506.2-293.2 506.2-592.7z"/></symbol><symbol id="email" viewBox="0 0 1200 1200"><path d="M1071.4 171.4H128.6C57.7 171.4 0 229.1 0 300v600c0 70.9 57.7 128.6 128.6 128.6h942.9c70.9 0 128.6-57.7 128.6-128.6V300c-.1-70.9-57.8-128.6-128.7-128.6zM600 670.1l-444.6-413h889.2L600 670.1zM398.6 600L85.7 890.6V309.4L398.6 600zm63 58.5L570.8 760c8.2 7.6 18.7 11.4 29.2 11.4s20.9-3.8 29.2-11.4l109.3-101.5 306.1 284.4H155.4l306.2-284.4zM801.4 600l312.9-290.6v581.2L801.4 600z"/></symbol><symbol id="hamburger" viewBox="0 0 1200 1200"><style>.st0{fill:#231f20}</style><path d="M1102.2 300H97.8c-55.2 0-100-44.8-100-100s44.8-100 100-100h1004.4c55.2 0 100 44.8 100 100s-44.8 100-100 100zm0 800H97.8c-55.2 0-100-44.8-100-100s44.8-100 100-100h1004.4c55.2 0 100 44.8 100 100s-44.8 100-100 100zm0-400H97.8c-55.2 0-100-44.8-100-100s44.8-100 100-100h1004.4c55.2 0 100 44.8 100 100s-44.8 100-100 100z" class="st0"/></symbol><symbol id="instagram" viewBox="0 0 1200 1200"><path d="M600 0C436.7 0 416.7 0 353.3 3.3 303.2 4.4 253.6 14 206.6 31.6c-81 30.1-144.9 94-175 175-17.6 47-27.2 96.5-28.3 146.7C0 416.7 0 436.7 0 600s0 183.3 3.3 246.7c1.1 50.1 10.7 99.7 28.3 146.7 30.1 81 94 144.9 175 175 47 17.6 96.5 27.2 146.7 28.3 63.3 3.3 83.3 3.3 246.7 3.3s183.3 0 246.7-3.3c50.1-1.1 99.7-10.7 146.7-28.3 81-30.1 144.9-94 175-175 17.6-47 27.2-96.5 28.3-146.7 3.3-63.3 3.3-83.3 3.3-246.7s0-183.3-3.3-246.7c-1.1-50.1-10.7-99.7-28.3-146.7-30.1-81-94-144.9-175-175-47-17.6-96.5-27.2-146.7-28.3C783.3 0 763.3 0 600 0zm0 108.3c160 0 180 0 241.7 3.3 38.1.3 75.8 7.1 111.7 20 26 10.4 49.7 25.7 70 45 19.3 20.3 34.6 44 45 70 12.9 35.8 19.7 73.6 20 111.7 3.3 61.7 3.3 81.7 3.3 241.7s0 180-3.3 241.7c-.3 38.1-7.1 75.8-20 111.7-19.9 53.1-61.9 95.1-115 115-35.8 12.9-73.6 19.7-111.7 20-61.7 3.3-81.7 3.3-241.7 3.3s-180 0-241.7-3.3c-38.1-.3-75.8-7.1-111.7-20-26-10.4-49.7-25.7-70-45-19.3-20.3-34.6-44-45-70-12.9-35.8-19.7-73.6-20-111.7-3.3-61.7-3.3-81.7-3.3-241.7s0-180 3.3-241.7c.3-38.1 7.1-75.8 20-111.7 10.4-26 25.7-49.7 45-70 20.3-19.3 44-34.6 70-45 35.8-12.9 73.6-19.7 111.7-20 61.7-3.3 81.7-3.3 241.7-3.3"/><path d="M600 800c-110.5 0-200-89.5-200-200s89.5-200 200-200 200 89.5 200 200-89.5 200-200 200zm0-508.3c-170.3 0-308.3 138-308.3 308.3s138 308.3 308.3 308.3 308.3-138 308.3-308.3-138-308.3-308.3-308.3zM991.7 280c0 39.6-32.1 71.7-71.7 71.7s-71.7-32.1-71.7-71.7 32.1-71.7 71.7-71.7 71.7 32.1 71.7 71.7z"/></symbol></svg>