<svg id="Layer_1" data-name="Layer 1" xmlns="http://www.w3.org/2000/svg" viewBox="0 0 1200 1060.61"><defs><style>.cls-1{fill:#141315;}</style></defs><path class="cls-1" d="M893.37,464.65l0-1.12c-.84-31.5-13.43-51.09-32.86-51.09-21.15,0-29.42,14.68-29.42,47.61,0,39.06-15.5,70.28-44.81,90.29C764.84,565,736.59,573,704.56,573.62c-30.36.61-63-5.55-94-17.64a11.2,11.2,0,0,1-6.81-13.74,10.9,10.9,0,0,1,5.76-6.59,11.07,11.07,0,0,1,8.74-.31c58.29,22.8,119.37,21.55,155.62-3.19,23.36-15.95,35.21-40.2,35.21-72.1,0-22.69,3.43-40.18,12.48-52s22.08-17.65,39-17.65h.41a14,14,0,0,0,11.68-6.23,13.45,13.45,0,0,0,1.18-12.92c-19.1-44.73-50.89-83.53-92.44-113a104.91,104.91,0,0,0,6.79-37,106.58,106.58,0,0,0-11.63-48.07l0-87.71A13.91,13.91,0,0,0,758,72.36L685.61,98a245.56,245.56,0,0,0-167.15,0L446.11,72.35a13.92,13.92,0,0,0-18.57,13.11V173.3a106.5,106.5,0,0,0-11.58,48,104.85,104.85,0,0,0,6.79,37,290,290,0,0,0-26.81,21.59c-55,50-85.25,116.48-85.25,187.16,0,35.11,7.65,65.75,22.75,91.08,14.05,23.58,34.93,43.2,62.07,58.32,48.22,26.86,117.71,40.48,206.53,40.48s158.31-13.62,206.53-40.48c27.14-15.12,48-34.74,62.07-58.32,15.1-25.33,22.75-56,22.75-91.08C893.39,466.22,893.38,465.43,893.37,464.65Z" transform="translate(0 -71.54)"/><path class="cls-1" d="M79.2,781.7v20.77H25.73v32.89h41v20.4h-41V910H0V781.7Z" transform="translate(0 -71.54)"/><path class="cls-1" d="M96.94,831.32a45.09,45.09,0,0,1,16.72-18.38,44.6,44.6,0,0,1,23.62-6.43,41.36,41.36,0,0,1,19.93,4.6,40.57,40.57,0,0,1,13.7,11.57V808.16h25.91V910H170.91V895.09a38.25,38.25,0,0,1-13.7,11.85,41.8,41.8,0,0,1-20.12,4.69A43.27,43.27,0,0,1,113.66,905a46.24,46.24,0,0,1-16.72-18.65q-6.16-12-6.16-27.66Q90.78,843.26,96.94,831.32ZM167.23,843a26,26,0,0,0-9.92-10.29,26.54,26.54,0,0,0-13.42-3.59,25.86,25.86,0,0,0-23.06,13.7,32,32,0,0,0-3.77,15.89,33,33,0,0,0,3.77,16.08,27.1,27.1,0,0,0,9.92,10.57A25.21,25.21,0,0,0,143.89,889a26.53,26.53,0,0,0,13.42-3.58,26,26,0,0,0,9.92-10.29,37,37,0,0,0,0-32.16Z" transform="translate(0 -71.54)"/><path class="cls-1" d="M252,829.3v49.25c0,3.43.82,5.91,2.48,7.44s4.44,2.3,8.36,2.3h11.94V910H258.56Q226,910,226,878.36V829.3H213.91V808.16H226V783H252v25.17h22.78V829.3Z" transform="translate(0 -71.54)"/><path class="cls-1" d="M427.63,855a31.69,31.69,0,0,1,7,20.21,32.63,32.63,0,0,1-5.05,18.1A33.75,33.75,0,0,1,415,905.56Q405.38,910,392.34,910H337V781.7H390q13.05,0,22.52,4.23a32.14,32.14,0,0,1,14.33,11.76,30.84,30.84,0,0,1,4.87,17.09q0,11.21-6,18.74a31.92,31.92,0,0,1-15.9,10.66A28.87,28.87,0,0,1,427.63,855Zm-64.87-20.4h23.52q9.18,0,14.15-4.14t5-11.85q0-7.73-5-11.94t-14.15-4.23H362.76Zm40.52,50q5.24-4.41,5.23-12.49,0-8.28-5.51-13t-14.88-4.68H362.76V889h25.91Q398,889,403.28,884.61Z" transform="translate(0 -71.54)"/><path class="cls-1" d="M480.92,774V910H455.19V774Z" transform="translate(0 -71.54)"/><path class="cls-1" d="M502.14,831.32a45.18,45.18,0,0,1,16.73-18.38,44.56,44.56,0,0,1,23.61-6.43,41.43,41.43,0,0,1,19.94,4.6,40.43,40.43,0,0,1,13.69,11.57V808.16H602V910H576.11V895.09a38.21,38.21,0,0,1-13.69,11.85,41.83,41.83,0,0,1-20.12,4.69A43.25,43.25,0,0,1,518.87,905a46.34,46.34,0,0,1-16.73-18.65q-6.15-12-6.15-27.66Q496,843.26,502.14,831.32ZM572.43,843a26,26,0,0,0-9.92-10.29,26.53,26.53,0,0,0-13.41-3.59A25.86,25.86,0,0,0,526,842.81a32,32,0,0,0-3.76,15.89A33,33,0,0,0,526,874.78,27.05,27.05,0,0,0,536,885.35,25.18,25.18,0,0,0,549.1,889a26.52,26.52,0,0,0,13.41-3.58,26,26,0,0,0,9.92-10.29,37,37,0,0,0,0-32.16Z" transform="translate(0 -71.54)"/><path class="cls-1" d="M623.34,831.41A46.1,46.1,0,0,1,641.16,813a51.7,51.7,0,0,1,26.1-6.52q18.93,0,31.33,9.47t16.63,26.55H687.47A20.29,20.29,0,0,0,680,832.15a21.62,21.62,0,0,0-13-3.77q-11,0-17.45,8t-6.43,22.7q0,14.52,6.43,22.51t17.45,8q15.63,0,20.4-14h27.75Q711,892.14,698.5,901.89t-31.24,9.74a51.6,51.6,0,0,1-26.1-6.53,46,46,0,0,1-17.82-18.37q-6.44-11.87-6.43-27.66T623.34,831.41Z" transform="translate(0 -71.54)"/><path class="cls-1" d="M790.75,910,756.2,866.6V910H730.47V774H756.2v77.37l34.18-43.19h33.45L779,859.25,824.2,910Z" transform="translate(0 -71.54)"/><path class="cls-1" d="M883.83,811.75a60.93,60.93,0,0,1,23.34-23.34,66.24,66.24,0,0,1,33.17-8.36q21.49,0,37.67,11t22.6,30.51H971a30.67,30.67,0,0,0-12.41-13.78,36.42,36.42,0,0,0-18.47-4.6,38,38,0,0,0-19.94,5.24,35.81,35.81,0,0,0-13.6,14.79q-4.86,9.57-4.87,22.42A49,49,0,0,0,906.61,868a35.65,35.65,0,0,0,13.6,14.89,38,38,0,0,0,19.94,5.23,35.87,35.87,0,0,0,18.47-4.68A31.25,31.25,0,0,0,971,869.54h29.58q-6.43,19.68-22.51,30.6t-37.76,10.94a66.14,66.14,0,0,1-33.17-8.37,61.08,61.08,0,0,1-23.34-23.24q-8.55-14.9-8.55-33.82T883.83,811.75Z" transform="translate(0 -71.54)"/><path class="cls-1" d="M1022.2,831.32a45.18,45.18,0,0,1,16.73-18.38,44.56,44.56,0,0,1,23.61-6.43,41.4,41.4,0,0,1,19.94,4.6,40.43,40.43,0,0,1,13.69,11.57V808.16h25.91V910h-25.91V895.09a38.21,38.21,0,0,1-13.69,11.85,41.83,41.83,0,0,1-20.12,4.69,43.25,43.25,0,0,1-23.43-6.62,46.34,46.34,0,0,1-16.73-18.65q-6.15-12-6.15-27.66Q1016.05,843.26,1022.2,831.32ZM1092.5,843a26,26,0,0,0-9.93-10.29,26.48,26.48,0,0,0-13.41-3.59,25.89,25.89,0,0,0-23.07,13.7,32,32,0,0,0-3.76,15.89,33,33,0,0,0,3.76,16.08,27.05,27.05,0,0,0,9.93,10.57,25.18,25.18,0,0,0,13.14,3.67,26.47,26.47,0,0,0,13.41-3.58,26,26,0,0,0,9.93-10.29,37.06,37.06,0,0,0,0-32.16Z" transform="translate(0 -71.54)"/><path class="cls-1" d="M1177.21,829.3v49.25q0,5.15,2.48,7.44c1.66,1.54,4.44,2.3,8.36,2.3h12V910h-16.17q-32.53,0-32.53-31.61V829.3h-12.13V808.16h12.13V783h25.91v25.17H1200V829.3Z" transform="translate(0 -71.54)"/><path class="cls-1" d="M330.6,1127.19a39.59,39.59,0,0,1-17-13.23,34.8,34.8,0,0,1-6.43-20.4h27.56q.56,7.9,5.61,12.5t13.87,4.59q9,0,14.15-4.32a14,14,0,0,0,5.15-11.3,13.08,13.08,0,0,0-3.49-9.37,24.52,24.52,0,0,0-8.73-5.79,146.67,146.67,0,0,0-14.43-4.69,154.59,154.59,0,0,1-20.31-7.26,35.55,35.55,0,0,1-13.41-10.84q-5.61-7.26-5.61-19.39a34.63,34.63,0,0,1,5.7-19.84,36.22,36.22,0,0,1,16-13,58.18,58.18,0,0,1,23.52-4.5q19.85,0,32.25,9.65T398.68,1037h-28.3a14.7,14.7,0,0,0-5.6-10.94q-5.23-4.31-13.88-4.32-7.53,0-12,3.86t-4.51,11.21a11.61,11.61,0,0,0,3.4,8.55,25.78,25.78,0,0,0,8.46,5.51q5.05,2.12,14.24,4.87a149.8,149.8,0,0,1,20.4,7.35,36.83,36.83,0,0,1,13.6,11q5.69,7.35,5.69,19.3a36.22,36.22,0,0,1-5.33,19.11,37.67,37.67,0,0,1-15.62,14.06q-10.29,5.23-24.44,5.23A60.93,60.93,0,0,1,330.6,1127.19Z" transform="translate(0 -71.54)"/><path class="cls-1" d="M452.34,1049.82v49.25q0,5.15,2.48,7.44c1.66,1.54,4.44,2.3,8.37,2.3h11.94v21.69H459q-32.54,0-32.53-31.61v-49.07H414.3v-21.13h12.13v-25.18h25.91v25.18h22.79v21.13Z" transform="translate(0 -71.54)"/><path class="cls-1" d="M589.8,1028.69V1130.5H563.89v-12.87a34,34,0,0,1-13,10.39,40.38,40.38,0,0,1-17.36,3.76,43.14,43.14,0,0,1-21.14-5A35.62,35.62,0,0,1,498,1111.84q-5.24-9.83-5.24-23.43v-59.72H518.5v56q0,12.12,6.06,18.65t16.54,6.52q10.65,0,16.72-6.52t6.07-18.65v-56Z" transform="translate(0 -71.54)"/><path class="cls-1" d="M614.7,1051.84A44.43,44.43,0,0,1,655.22,1027a43.35,43.35,0,0,1,18.93,4.32,37.83,37.83,0,0,1,14.33,11.49V994.51h26.1v136h-26.1v-15.07a34.8,34.8,0,0,1-13.41,12.13,42.07,42.07,0,0,1-20,4.59,43.62,43.62,0,0,1-23.52-6.62,46,46,0,0,1-16.82-18.65q-6.16-12-6.16-27.66Q608.54,1063.79,614.7,1051.84ZM685,1063.51a26,26,0,0,0-9.92-10.29,26.53,26.53,0,0,0-13.42-3.58,26,26,0,0,0-13.23,3.49,26.33,26.33,0,0,0-9.83,10.2,32,32,0,0,0-3.77,15.89,33,33,0,0,0,3.77,16.08,27.1,27.1,0,0,0,9.92,10.57,25.25,25.25,0,0,0,13.14,3.68,26.54,26.54,0,0,0,13.42-3.59,25.89,25.89,0,0,0,9.92-10.29,37,37,0,0,0,0-32.16Z" transform="translate(0 -71.54)"/><path class="cls-1" d="M741.5,1012.24a15.09,15.09,0,0,1,0-21.5,16.94,16.94,0,0,1,22.6,0,15.07,15.07,0,0,1,0,21.5,16.94,16.94,0,0,1-22.6,0Zm24,16.45V1130.5H739.75V1028.69Z" transform="translate(0 -71.54)"/><path class="cls-1" d="M809.59,1125.63a46.94,46.94,0,0,1-18.47-18.47q-6.72-11.94-6.71-27.57T791.3,1052a47.86,47.86,0,0,1,18.84-18.47,57.63,57.63,0,0,1,53.29,0A47.92,47.92,0,0,1,882.27,1052q6.88,11.94,6.89,27.56t-7.08,27.57A49,49,0,0,1,863,1125.63a55.55,55.55,0,0,1-26.92,6.52A53.58,53.58,0,0,1,809.59,1125.63Zm39.6-19.3a24.71,24.71,0,0,0,9.83-10.2q3.68-6.8,3.67-16.54,0-14.5-7.62-22.33a25.1,25.1,0,0,0-18.65-7.81,24.51,24.51,0,0,0-18.47,7.81q-7.44,7.82-7.45,22.33t7.26,22.33a23.9,23.9,0,0,0,18.29,7.81A26.76,26.76,0,0,0,849.19,1106.33Z" transform="translate(0 -71.54)"/></svg>