<svg id="Layer_1" data-name="Layer 1" xmlns="http://www.w3.org/2000/svg" width="1200" height="1200" viewBox="0 0 1200 1200"><path d="M1197.2,805.9v-2.3c-1.7-64.6-27.5-104.7-67.3-104.7-43.4,0-60.4,30.1-60.4,97.6,0,80-31.7,144-91.8,185.1-44,30-101.9,46.5-167.5,47.7-62.3,1.2-129.2-11.4-192.8-36.1-11.5-4.5-17.6-16.9-14-28.2a22.7,22.7,0,0,1,29.8-14.2c119.5,46.8,244.7,44.2,319-6.5,47.9-32.7,72.2-82.4,72.2-147.8,0-46.5,7-82.4,25.6-106.6s45.2-36.2,79.9-36.2h.8a28.7,28.7,0,0,0,23.9-12.8,27.4,27.4,0,0,0,2.4-26.4c-39.1-91.7-104.3-171.3-189.5-231.7a214.2,214.2,0,0,0,14-75.9c0-34.6-8.5-67.8-23.9-98.5V28.6A28.5,28.5,0,0,0,919.6,1.7L771.3,54.3c-51.5-19.2-109.7-30-171.3-30s-119.8,10.8-171.3,30L280.3,1.7a28.4,28.4,0,0,0-38,26.8V208.6c-15.4,30.6-23.8,63.8-23.8,98.3a216.7,216.7,0,0,0,13.9,75.9A596.2,596.2,0,0,0,177.5,427C64.8,529.6,2.7,665.8,2.7,810.7c0,72,15.7,134.8,46.6,186.8C78.2,1045.8,121,1086,176.6,1117c98.8,55.1,241.3,83,423.4,83s324.5-27.9,423.4-83c55.6-31,98.4-71.2,127.3-119.5,30.9-52,46.6-114.8,46.6-186.8C1197.3,809.1,1197.3,807.5,1197.2,805.9Z"/></svg>