<?xml version="1.0" encoding="utf-8"?>
<!-- Generator: Adobe Illustrator 25.4.1, SVG Export Plug-In . SVG Version: 6.00 Build 0)  -->
<svg version="1.1" id="Layer_1" xmlns="http://www.w3.org/2000/svg" xmlns:xlink="http://www.w3.org/1999/xlink" x="0px" y="0px"
	 viewBox="0 0 1200 1200" style="enable-background:new 0 0 1200 1200;" xml:space="preserve">
<style type="text/css">
	.st0{fill:#005281;}
</style>
<path class="st0" d="M1042.2,0H157.8C70.6,0,0,70.6,0,157.8v884.5c0,87.1,70.6,157.8,157.8,157.8h884.5
	c87.1,0,157.8-70.6,157.8-157.8V157.8C1200,70.6,1129.4,0,1042.2,0z M1009.7,398.6c-25.4,129.8-86.7,250-176.9,346.7
	C714.9,898.5,615.1,975.1,533.5,975.1c-50.6,0-93.3-46.6-128.2-139.9l-70.2-256.7c-25.9-93.2-53.8-140-83.6-140.4
	c-24.6,10.2-47.5,24-68,40.9l-40.8-52.6c42.8-37.6,85-75.2,126.6-112.8c35.1-37,79.5-63.9,128.5-77.9c67.5-6.7,109,39.5,124.6,138.4
	c16.8,106.5,28.6,172.8,35.1,198.7c19.5,88.4,40.9,132.6,64.2,132.5c18.2,0,45.4-28.7,81.7-86c28.6-39,48.5-83.7,58.4-131
	c5.2-49.4-14.3-74.2-58.4-74.2c-22.1,0.3-44,5.1-64.2,14.1c42.7-139.6,124.1-207.4,244.2-203.4
	C972.7,227.7,1014.8,285.6,1009.7,398.6z"/>
</svg>
