<?xml version="1.0" encoding="utf-8"?>
<!-- Generator: Adobe Illustrator 25.4.1, SVG Export Plug-In . SVG Version: 6.00 Build 0)  -->
<svg version="1.1" id="Layer_1" xmlns="http://www.w3.org/2000/svg" xmlns:xlink="http://www.w3.org/1999/xlink" x="0px" y="0px"
	 viewBox="0 0 1200 1200" style="enable-background:new 0 0 1200 1200;" xml:space="preserve">
<style type="text/css">
	.st0{fill:#231F20;}
</style>
<path class="st0" d="M921.7,1063.1L136.9,278.3c-43.1-43.1-46.5-109.8-7.4-148.8s105.7-35.7,148.8,7.4l784.8,784.8
	c43.1,43.1,46.5,109.8,7.4,148.8C1031.5,1109.6,964.8,1106.2,921.7,1063.1L921.7,1063.1z"/>
<path class="st0" d="M136.9,921.7l784.8-784.8c43.1-43.1,109.8-46.5,148.8-7.4c39,39,35.7,105.7-7.4,148.8l-784.8,784.8
	c-43.1,43.1-109.8,46.5-148.8,7.4S93.8,964.8,136.9,921.7L136.9,921.7z"/>
</svg>
